<mxfile host="app.diagrams.net" modified="2023-04-27T00:17:01.409Z" agent="Mozilla/5.0 (Windows NT 10.0; Win64; x64) AppleWebKit/537.36 (KHTML, like Gecko) Chrome/109.0.0.0 Safari/537.36" version="21.2.2" etag="hgchNoe6B8OXKR25m4z2" type="github">
  <diagram name="Page-1" id="IOg-lXAIRSiLPFuE2EKe">
    <mxGraphModel>
      <root>
        <mxCell id="0" />
        <mxCell id="1" parent="0" />
      </root>
    </mxGraphModel>
  </diagram>
</mxfile>
